<svg width="40" height="40" viewBox="0 0 40 40" fill="none" xmlns="http://www.w3.org/2000/svg">
<g clip-path="url(#clip0_1254_4409)" filter="url(#filter0_d_1254_4409)">
<path d="M32 26H7.99998C5.79394 26 4 27.7939 4 30V32.0001H36V30C36 27.7939 34.2061 26 32 26Z" fill="#A74170"/>
<path d="M20 0L4 10V14H7.99998V24H14V14H17V24H23V14H26V24H32V14H35.9999V10L20 0ZM20 6C21.1046 6 22 6.89541 22 8.00001C22 9.1045 21.1046 10 20 10C18.8954 10 18 9.1045 18 8.00001C18 6.89541 18.8954 6 20 6Z" fill="#A74170"/>
</g>
<defs>
<filter id="filter0_d_1254_4409" x="0" y="0" width="40" height="40" filterUnits="userSpaceOnUse" color-interpolation-filters="sRGB">
<feFlood flood-opacity="0" result="BackgroundImageFix"/>
<feColorMatrix in="SourceAlpha" type="matrix" values="0 0 0 0 0 0 0 0 0 0 0 0 0 0 0 0 0 0 127 0" result="hardAlpha"/>
<feOffset dy="4"/>
<feGaussianBlur stdDeviation="2"/>
<feComposite in2="hardAlpha" operator="out"/>
<feColorMatrix type="matrix" values="0 0 0 0 0 0 0 0 0 0 0 0 0 0 0 0 0 0 0.25 0"/>
<feBlend mode="normal" in2="BackgroundImageFix" result="effect1_dropShadow_1254_4409"/>
<feBlend mode="normal" in="SourceGraphic" in2="effect1_dropShadow_1254_4409" result="shape"/>
</filter>
<clipPath id="clip0_1254_4409">
<rect width="32" height="32" fill="white" transform="translate(4)"/>
</clipPath>
</defs>
</svg>
